<?xml version="1.0" encoding="utf-8"?>
<!-- Generator: Adobe Illustrator 16.0.0, SVG Export Plug-In . SVG Version: 6.00 Build 0)  -->
<!DOCTYPE svg PUBLIC "-//W3C//DTD SVG 1.1//EN" "http://www.w3.org/Graphics/SVG/1.1/DTD/svg11.dtd">
<svg version="1.1" id="Layer_1" xmlns="http://www.w3.org/2000/svg" xmlns:xlink="http://www.w3.org/1999/xlink" x="0px" y="0px"
	 width="668.917px" height="117.333px" viewBox="0 0 668.917 117.333" enable-background="new 0 0 668.917 117.333"
	 xml:space="preserve">
<g>
	<g>
		<path fill-rule="evenodd" clip-rule="evenodd" fill="#8762EA" d="M52.613,54.835c-15.997,0-31.994-0.012-47.992,0.026
			c-1.166,0.002-1.502-0.325-1.469-1.479c0.078-2.757,0.172-5.528-0.012-8.276c-0.319-4.806,3.336-8.14,6.639-9.415
			c1.238-0.478,2.518-0.724,3.859-0.724c29.076,0.013,58.152,0.008,87.228,0.02c4.73,0.001,8.783,3.228,9.469,7.742
			c1.113,7.323-3.549,12.115-9.968,12.115c-15.918,0-31.836,0-47.754,0C52.613,54.842,52.613,54.839,52.613,54.835z"/>
		<path fill-rule="evenodd" clip-rule="evenodd" fill="#8762EA" d="M60.777,84.644c-8.555,0-17.109,0.014-25.664-0.006
			c-4.284-0.01-7.538-1.891-9.24-5.836c-1.67-3.868-1.109-7.615,1.691-10.844c1.85-2.133,4.342-3.159,7.127-3.167
			c14.751-0.043,29.502-0.062,44.252-0.003c5.504,0.022,9.643,4.338,9.666,9.826c0.013,2.918-0.051,5.838,0.032,8.755
			c0.031,1.103-0.343,1.31-1.36,1.305c-8.834-0.038-17.669-0.021-26.504-0.021C60.777,84.648,60.777,84.646,60.777,84.644z"/>
		<path fill-rule="evenodd" clip-rule="evenodd" fill="#C1D632" d="M60.711,4.043c1.679,0,3.357-0.001,5.037,0
			c0.485,0,1.016-0.054,0.996,0.681c-0.1,3.671,0.337,7.366-0.24,11.01c-0.715,4.513-4.769,7.894-9.337,7.947
			c-3.038,0.035-6.077-0.023-9.114,0.023c-0.89,0.014-1.192-0.256-1.16-1.155c0.129-3.591-0.348-7.205,0.235-10.772
			c0.696-4.264,4.729-7.643,9.024-7.718c1.52-0.027,3.039-0.004,4.559-0.004C60.711,4.05,60.711,4.046,60.711,4.043z"/>
		<path fill-rule="evenodd" clip-rule="evenodd" fill="#8762EA" d="M53.564,114.233c-1.877,0-3.756-0.032-5.632,0.021
			c-0.515,0.016-0.807-0.098-0.813-0.587c-0.059-3.948-0.588-7.935,0.248-11.831c1.038-4.849,5.793-7.769,11.115-7.084
			c4.465,0.573,7.965,4.725,8.068,9.352c0.096,4.332-1.722,7.443-5.535,9.425c-0.939,0.488-1.956,0.673-3.012,0.667
			c-1.48-0.008-2.959-0.003-4.439-0.003C53.564,114.207,53.564,114.221,53.564,114.233z"/>
	</g>
	<g>
		<path fill="#FFFFFF" d="M194.375,45.669c-1.057-1.708-2.501-3.021-4.332-3.936c-1.833-0.915-3.991-1.373-6.475-1.373
			c-4.597,0-8.214,1.465-10.853,4.394c-2.641,2.929-3.959,6.865-3.959,11.808c0,5.553,1.412,9.78,4.239,12.677
			c2.825,2.899,6.94,4.348,12.343,4.348c6.396,0,10.961-2.838,13.694-8.513h-18.352V52.168h34.096V69.56
			c-1.429,3.418-3.525,6.622-6.288,9.611c-2.764,2.99-6.258,5.446-10.48,7.368c-4.224,1.922-9.037,2.884-14.44,2.884
			c-6.583,0-12.406-1.388-17.467-4.165c-5.063-2.776-8.975-6.65-11.738-11.625c-2.764-4.973-4.146-10.664-4.146-17.071
			c0-6.346,1.381-12.005,4.146-16.979c2.763-4.973,6.661-8.847,11.692-11.625c5.03-2.776,10.837-4.165,17.42-4.165
			c8.259,0,15.092,1.954,20.495,5.858c5.403,3.906,8.757,9.245,10.062,16.019H194.375z"/>
		<path fill="#FFFFFF" d="M250.549,39.72c2.918-1.708,6.056-2.563,9.409-2.563v19.13h-5.124c-3.976,0-6.926,0.764-8.85,2.289
			c-1.926,1.526-2.888,4.181-2.888,7.963v22.426h-18.259V37.614h18.259v9.062C245.146,43.747,247.629,41.429,250.549,39.72z"/>
		<path fill="#FFFFFF" d="M268.295,49.331c1.956-3.966,4.626-7.017,8.012-9.153c3.384-2.135,7.157-3.204,11.319-3.204
			c3.601,0,6.708,0.702,9.316,2.105c2.608,1.404,4.626,3.295,6.055,5.675v-7.14h18.26v51.351h-18.26v-7.14
			c-1.429,2.38-3.463,4.272-6.102,5.675c-2.641,1.404-5.729,2.105-9.269,2.105c-4.162,0-7.935-1.066-11.319-3.203
			c-3.386-2.136-6.056-5.202-8.012-9.2c-1.957-3.996-2.935-8.65-2.935-13.959C265.361,57.935,266.339,53.298,268.295,49.331z
			 M300.249,55.463c-1.832-1.891-4.084-2.837-6.754-2.837c-2.733,0-5,0.931-6.8,2.792c-1.802,1.862-2.702,4.471-2.702,7.826
			c0,3.295,0.899,5.904,2.702,7.826c1.801,1.922,4.067,2.883,6.8,2.883c2.67,0,4.922-0.945,6.754-2.837
			c1.832-1.891,2.748-4.515,2.748-7.872C302.997,59.949,302.081,57.355,300.249,55.463z"/>
		<path fill="#FFFFFF" d="M357.868,39.079c2.607-1.403,5.682-2.105,9.223-2.105c4.16,0,7.933,1.068,11.318,3.204
			c3.385,2.137,6.055,5.188,8.012,9.153c1.956,3.968,2.935,8.604,2.935,13.913c0,5.309-0.979,9.963-2.935,13.959
			c-1.957,3.998-4.627,7.064-8.012,9.2c-3.386,2.137-7.158,3.203-11.318,3.203c-3.541,0-6.601-0.701-9.177-2.105
			c-2.578-1.402-4.611-3.295-6.103-5.675v31.671h-18.259V37.614h18.259v7.14C353.24,42.374,355.258,40.483,357.868,39.079z
			 M368.068,55.418c-1.833-1.861-4.085-2.792-6.754-2.792c-2.671,0-4.923,0.947-6.755,2.837c-1.832,1.892-2.748,4.485-2.748,7.78
			c0,3.357,0.916,5.981,2.748,7.872c1.832,1.892,4.084,2.837,6.755,2.837c2.669,0,4.921-0.961,6.754-2.883
			c1.831-1.922,2.748-4.531,2.748-7.826C370.816,59.889,369.899,57.28,368.068,55.418z"/>
		<path fill="#FFFFFF" d="M448.418,66.905h-34.563c0.187,2.808,0.979,4.897,2.376,6.27c1.396,1.373,3.182,2.06,5.356,2.06
			c3.042,0,5.217-1.342,6.521-4.027h19.471c-0.807,3.54-2.375,6.697-4.703,9.474c-2.33,2.777-5.264,4.958-8.805,6.544
			c-3.54,1.588-7.453,2.38-11.738,2.38c-5.156,0-9.734-1.066-13.74-3.203c-4.006-2.136-7.144-5.187-9.41-9.154
			c-2.268-3.966-3.4-8.634-3.4-14.005c0-5.369,1.118-10.023,3.354-13.958c2.236-3.936,5.357-6.971,9.363-9.108
			c4.006-2.135,8.617-3.204,13.834-3.204c5.154,0,9.719,1.039,13.695,3.112c3.973,2.075,7.08,5.05,9.316,8.924
			c2.234,3.876,3.354,8.437,3.354,13.685C448.698,64.099,448.604,65.502,448.418,66.905z M430.065,58.209
			c0-2.197-0.746-3.92-2.236-5.171c-1.49-1.25-3.354-1.876-5.59-1.876c-2.235,0-4.068,0.595-5.496,1.785
			c-1.43,1.19-2.361,2.945-2.795,5.263H430.065z"/>
		<path fill="#FFFFFF" d="M483.073,72.031l9.781-34.417h19.471l-17.98,51.351h-22.73l-17.979-51.351h19.469L483.073,72.031z"/>
		<path fill="#FFFFFF" d="M521.778,30.246c-1.957-1.739-2.934-3.92-2.934-6.545c0-2.685,0.977-4.911,2.934-6.682
			c1.957-1.77,4.549-2.655,7.779-2.655c3.168,0,5.729,0.885,7.686,2.655c1.957,1.771,2.934,3.997,2.934,6.682
			c0,2.625-0.977,4.806-2.934,6.545s-4.518,2.608-7.686,2.608C526.327,32.854,523.735,31.985,521.778,30.246z M538.594,37.614
			v51.351h-18.26V37.614H538.594z"/>
		<path fill="#FFFFFF" d="M599.426,43.061c3.541,3.936,5.311,9.261,5.311,15.973v29.932h-18.26V61.413
			c0-2.929-0.777-5.231-2.328-6.911c-1.553-1.678-3.633-2.517-6.242-2.517c-2.734,0-4.877,0.839-6.428,2.517
			c-1.553,1.679-2.328,3.981-2.328,6.911v27.552h-18.26V37.614h18.26v7.323c1.613-2.318,3.787-4.195,6.52-5.629
			c2.732-1.433,5.869-2.151,9.41-2.151C591.104,37.157,595.887,39.125,599.426,43.061z"/>
		<path fill="#FFFFFF" d="M666.315,66.905h-34.563c0.186,2.808,0.979,4.897,2.375,6.27c1.398,1.373,3.182,2.06,5.357,2.06
			c3.041,0,5.217-1.342,6.521-4.027h19.469c-0.807,3.54-2.375,6.697-4.703,9.474c-2.33,2.777-5.264,4.958-8.805,6.544
			c-3.539,1.588-7.453,2.38-11.738,2.38c-5.154,0-9.734-1.066-13.74-3.203c-4.006-2.136-7.143-5.187-9.41-9.154
			c-2.268-3.966-3.4-8.634-3.4-14.005c0-5.369,1.119-10.023,3.355-13.958c2.234-3.936,5.355-6.971,9.361-9.108
			c4.006-2.135,8.617-3.204,13.834-3.204c5.154,0,9.719,1.039,13.695,3.112c3.973,2.075,7.08,5.05,9.316,8.924
			c2.234,3.876,3.354,8.437,3.354,13.685C666.594,64.099,666.5,65.502,666.315,66.905z M647.961,58.209
			c0-2.197-0.744-3.92-2.236-5.171c-1.49-1.25-3.354-1.876-5.588-1.876c-2.236,0-4.068,0.595-5.498,1.785
			c-1.428,1.19-2.359,2.945-2.793,5.263H647.961z"/>
	</g>
</g>
</svg>
